HIERARCHY
ROOT Hips
{
    OFFSET 0.000000 0.000000 0.000000
    CHANNELS 6 Xposition Yposition Zposition Zrotation Xrotation Yrotation
    JOINT Spine
    {
        OFFSET -0.000000 8.349382 0.000000
        CHANNELS 3 Zrotation Xrotation Yrotation
        JOINT Spine1
        {
            OFFSET -0.000000 23.269058 0.000000
            CHANNELS 3 Zrotation Xrotation Yrotation
            JOINT Neck
            {
                OFFSET -0.000000 23.173496 2.106681
                CHANNELS 3 Zrotation Xrotation Yrotation
                JOINT Head
                {
                    OFFSET -0.000000 14.255042 -2.036435
                    CHANNELS 3 Zrotation Xrotation Yrotation
                    End Site
                    {
                        OFFSET -0.000000 25.455433 0.000000
                    }
                }
            }
            JOINT LeftShoulder
            {
                OFFSET 3.917082 21.531742 0.000256
                CHANNELS 3 Zrotation Xrotation Yrotation
                JOINT LeftArm
                {
                    OFFSET 10.728225 0.000000 0.000000
                    CHANNELS 3 Zrotation Xrotation Yrotation
                    JOINT LeftForeArm
                    {
                        OFFSET 30.046112 0.000000 0.000000
                        CHANNELS 3 Zrotation Xrotation Yrotation
                        JOINT LeftHand
                        {
                            OFFSET 29.023712 0.000000 0.000000
                            CHANNELS 3 Zrotation Xrotation Yrotation
                            End Site
                            {
                                OFFSET 15.273261 0.000000 0.000000
                            }
                        }
                    }
                }
            }
            JOINT RightShoulder
            {
                OFFSET -3.920664 21.531742 0.000256
                CHANNELS 3 Zrotation Xrotation Yrotation
                JOINT RightArm
                {
                    OFFSET -10.728225 0.000000 0.000000
                    CHANNELS 3 Zrotation Xrotation Yrotation
                    JOINT RightForeArm
                    {
                        OFFSET -30.046112 0.000000 0.000000
                        CHANNELS 3 Zrotation Xrotation Yrotation
                        JOINT RightHand
                        {
                            OFFSET -29.023712 0.000000 0.000000
                            CHANNELS 3 Zrotation Xrotation Yrotation
                            End Site
                            {
                                OFFSET -15.273261 0.000000 0.000000
                            }
                        }
                    }
                }
            }
        }
    }
    JOINT LeftUpLeg
    {
        OFFSET 10.182174 0.000000 0.000000
        CHANNELS 3 Zrotation Xrotation Yrotation
        JOINT LeftLeg
        {
            OFFSET -0.000000 -49.689274 0.000000
            CHANNELS 3 Zrotation Xrotation Yrotation
            JOINT LeftFoot
            {
                OFFSET -0.000000 -39.155319 0.000000
                CHANNELS 3 Zrotation Xrotation Yrotation
                JOINT LeftToeBase
                {
                    OFFSET -0.000000 -6.618412 15.273261
                    CHANNELS 3 Zrotation Xrotation Yrotation
                    End Site
                    {
                        OFFSET -0.000000 0.000000 4.072869
                    }
                }
            }
        }
    }
    JOINT RightUpLeg
    {
        OFFSET -10.182174 0.000000 0.000000
        CHANNELS 3 Zrotation Xrotation Yrotation
        JOINT RightLeg
        {
            OFFSET -0.000000 -49.689274 0.000000
            CHANNELS 3 Zrotation Xrotation Yrotation
            JOINT RightFoot
            {
                OFFSET -0.000000 -39.155319 0.000000
                CHANNELS 3 Zrotation Xrotation Yrotation
                JOINT RightToeBase
                {
                    OFFSET -0.000000 -6.618412 15.273261
                    CHANNELS 3 Zrotation Xrotation Yrotation
                    End Site
                    {
                        OFFSET -0.000000 0.000000 4.072869
                    }
                }
            }
        }
    }
}
MOTION
Frames:    6
Frame Time:    0.008333
30.001110    97.839806    11.460391    0.105989    0.584652    99.384705    -1.021972    -0.515826    0.921308    0.731195    2.229744    0.911656    1.803242    11.713803    9.512083    -5.146117    -14.899406    8.441551    18.816307    0.368026    -20.462278    -8.024940    -4.615571    10.267211    7.411417    -8.080816    0.842163    -4.395296    -8.206449    1.885554    -16.876244    3.504273    -22.585079    11.042603    -1.550622    2.412215    -5.950148    -2.074178    1.773366    -5.571677    -2.051275    1.422358    3.269684    4.527711    -5.394366    -4.647150    -1.251069    -4.263221    0.179514    -3.346154    24.396158    0.000000    0.000000    0.000000    -4.484809    2.040651    -3.677372    4.866643    5.410110    0.769426    0.735774    -5.593668    -13.007314    0.000000    0.000000    0.000000    
29.999981    97.841415    11.448053    0.124110    0.575890    99.422997    -1.054671    -0.550951    0.901292    0.750201    2.191460    0.892040    1.881724    11.871567    9.506094    -5.282109    -14.909943    8.397922    18.767460    0.400586    -20.500534    -8.065964    -4.455511    10.167475    7.444094    -8.113914    0.768719    -4.528189    -8.235387    1.838751    -16.777176    3.520597    -22.529949    11.161283    -1.589873    2.471968    -5.857847    -2.192974    1.824535    -5.596188    -2.166147    1.360100    3.274206    4.592019    -5.473576    -4.631089    -1.382890    -4.093906    0.143307    -3.277633    24.263453    0.000000    0.000000    0.000000    -4.463183    2.114409    -3.649514    4.845151    5.295858    0.786124    0.746194    -5.543822    -13.087159    0.000000    0.000000    0.000000    
29.999506    97.844421    11.431171    0.141022    0.569147    99.452461    -1.067847    -0.573171    0.886492    0.728136    2.105973    0.878512    1.848507    11.947281    9.591176    -5.172173    -14.758831    8.525220    18.733742    0.459242    -20.568556    -8.084039    -4.365883    10.084906    7.452375    -8.091743    0.652662    -4.799489    -8.209125    1.815140    -16.580910    3.576319    -22.489664    11.219669    -1.611895    2.572504    -5.759382    -2.157023    1.790856    -5.382868    -2.135641    1.461047    3.265749    4.662155    -5.514314    -4.599260    -1.507855    -4.045185    0.129486    -3.209844    24.228140    0.000000    0.000000    0.000000    -4.445441    2.190797    -3.658841    4.819530    5.174024    0.756824    0.753243    -5.481602    -13.082990    0.000000    0.000000    0.000000    
29.999432    97.848404    11.418152    0.160055    0.556044    99.485130    -1.092714    -0.579654    0.879699    0.750606    2.003675    0.872130    1.838548    12.008794    9.676054    -5.156872    -14.571409    8.627357    18.668049    0.511019    -20.642399    -8.074282    -4.308510    9.996696    7.435498    -8.040791    0.553581    -5.103570    -8.151949    1.711927    -16.471485    3.601885    -22.480036    11.325636    -1.592498    2.662802    -5.690556    -2.157248    1.760352    -5.042489    -2.142240    1.645514    3.269155    4.735388    -5.548723    -4.562918    -1.644596    -3.994645    0.087709    -3.139519    24.168753    0.000000    0.000000    0.000000    -4.418164    2.279540    -3.574575    4.799292    5.021461    0.602768    0.788129    -5.409142    -13.037387    0.000000    0.000000    0.000000    
29.997135    97.852829    11.401071    0.175664    0.545991    99.512367    -1.112049    -0.647334    0.873956    0.766569    2.043232    0.866630    1.846496    12.020117    9.747551    -5.170933    -14.466084    8.702613    18.627583    0.479048    -20.615770    -8.003026    -4.346579    9.839068    7.270374    -7.877161    0.450554    -5.287078    -7.980523    1.640427    -16.417150    3.589058    -22.476604    11.488896    -1.557805    2.736065    -5.584517    -2.303321    1.787613    -4.836472    -2.284558    1.619871    3.270468    4.800280    -5.591856    -4.548123    -1.763336    -3.936664    0.067514    -3.079518    24.131556    0.000000    0.000000    0.000000    -4.396395    2.354788    -3.527314    4.770408    4.881169    0.465188    0.840823    -5.333803    -12.972292    0.000000    0.000000    0.000000    
30.007071    97.856750    11.375057    0.174560    0.536583    99.532593    -1.134738    -0.768669    0.885373    0.784275    2.123287    0.878468    1.876375    11.967353    9.807225    -5.182476    -14.254600    8.768929    18.637899    0.481328    -20.653261    -8.050888    -4.328191    9.713472    7.229641    -7.739185    0.332287    -5.531356    -7.842756    1.729226    -16.358326    3.576246    -22.469162    11.617460    -1.647329    2.757439    -5.426473    -2.222050    1.752112    -4.439717    -2.209913    1.828625    3.256686    4.853695    -5.626704    -4.519260    -1.873599    -3.868010    0.060939    -3.018316    24.082211    0.000000    0.000000    0.000000    -4.413795    2.439126    -3.408161    4.820255    4.725573    0.514748    0.852158    -5.278346    -13.164080    0.000000    0.000000    0.000000    
